# xmcd
#
# Track frame offsets: 
#        150
#        23131
#        46922
#        62809
#        77789
#        98590
#        121221
#        141369
#        167035
#        186875
#        204535
#        219247
#        238788
#        265990
#        287613
#        310528
#
# Disc length: 4367 seconds
#
# Revision: 1
# Processed by: cddbd v1.5.2PL0 Copyright (c) Steve Scherf et al.
# Submitted via: ExactAudioCopy v0.99pb5
#
DISCID=de110d10
DTITLE=Broery Marantika - Memories Hits (Vol.2)
DYEAR=1900
DGENRE=
TTITLE0=Hati Yang Terluka
TTITLE1=Aku Begini Engkau Begitu
TTITLE2=Jumpa Untuk Barpisah
TTITLE3=Beri Daku Harapan
TTITLE4=Ikuti Dia
TTITLE5=Bukan Aku Menyakitmu
TTITLE6=Pelangi
TTITLE7=Mawar Berduri
TTITLE8=Tak Ingin Sendiri
TTITLE9=Mengapa Harus Jumpa
TTITLE10=Cinta
TTITLE11=Mungkinkah
TTITLE12=Wakyu Potong Padi
TTITLE13=Widuri
TTITLE14=Kereta Senja
TTITLE15=Kharisma Cinta
EXTD=
EXTT0=
EXTT1=
EXTT2=
EXTT3=
EXTT4=
EXTT5=
EXTT6=
EXTT7=
EXTT8=
EXTT9=
EXTT10=
EXTT11=
EXTT12=
EXTT13=
EXTT14=
EXTT15=
PLAYORDER=
